<svg width="99" height="18" viewBox="0 0 99 18" fill="none" xmlns="http://www.w3.org/2000/svg">
<path d="M1.1611 10.1873V2.14307H0V15.7797H13.807L1.1611 10.1873ZM8.86812 14.7133L1.20317 14.6881V11.3041L8.86812 14.7133Z" fill="#DDDDDD"/>
<path d="M11.771 2.14307V10.2457L11.8215 10.7495C11.8972 11.6983 12.4357 12.6472 12.3852 12.6388C13.4033 14.1753 13.4537 14.0242 13.7146 14.2929C14.1689 14.7715 14.6569 15.0738 15.2627 15.3509C15.9695 15.6615 16.7351 15.8211 17.5008 15.8379C17.9972 15.7959 18.5609 15.8798 19.1499 15.6867C19.865 15.4432 20.5381 15.0906 21.1523 14.6455C21.6656 14.2509 22.2545 13.5876 22.549 13.0418C22.8856 12.3785 23.1127 11.6732 23.2305 10.9427V2.14307H11.771ZM22.1956 10.7831C22.1536 11.119 22.0778 11.4465 21.9769 11.7739C21.8675 12.1014 21.7161 12.4121 21.5225 12.6975C20.3783 14.2845 19.091 14.5784 18.6282 14.7127C18.1234 14.8555 17.2147 14.9142 16.5752 14.6707C16.0536 14.4776 15.7255 14.4944 15.2795 14.1837C14.3372 13.5204 13.3023 12.496 12.9405 11.1694C12.7722 10.5648 12.8648 10.9175 12.7722 10.3045C12.7217 9.96026 12.7722 3.08348 12.7722 3.08348H22.1956V10.7831Z" fill="#DDDDDD"/>
<path d="M17.4925 9.39369C17.8875 9.39369 18.2076 9.14138 18.2076 8.83014C18.2076 8.51891 17.8875 8.2666 17.4925 8.2666C17.0975 8.2666 16.7773 8.51891 16.7773 8.83014C16.7773 9.14138 17.0975 9.39369 17.4925 9.39369Z" fill="#DDDDDD"/>
<path d="M32.0646 11.6893V6.10549L38.5852 2.07505L36.5743 2.06665L32.1151 4.77881V2.07505H31.0465V5.42536L29.5152 6.33221V2.08344H28.4215V7.02074L25.4514 8.85124L28.3794 10.6817L28.4215 15.7114H29.5152L29.5657 11.3871L31.0213 12.2771L31.0381 15.7114H32.0562V12.9992L36.6501 15.7114H38.6525L32.0646 11.6893ZM28.413 9.37183L27.5044 8.87643L28.413 8.31384V9.37183ZM31.0213 11.0344L29.5152 10.052L29.5237 7.68408L31.0045 6.70166L31.0213 11.0344Z" fill="#DDDDDD"/>
<path d="M41.1265 2.14307L47.9668 15.7797L50.1376 11.7408L52.3251 15.7797L59.1571 2.14307H41.1265ZM47.9837 13.6469L42.7587 3.03314H45.9223L49.5907 10.4056L47.9837 13.6469ZM47.1339 3.04154H53.1581L50.146 9.29725L47.1339 3.04154ZM52.3588 13.714L50.7602 10.4896C50.6845 10.498 54.4033 3.03314 54.4033 3.03314H57.6006L52.3588 13.714Z" fill="#DDDDDD"/>
<path d="M58.6943 9.03198L55.312 15.8503H62.1439L58.6943 9.03198ZM56.9947 14.893L58.728 11.3831L60.4696 14.893H56.9947Z" fill="#DDDDDD"/>
<path d="M62.1696 2.14307L59.4856 7.32391L63.5999 15.7711H69.0521L62.1696 2.14307ZM64.3151 14.8223L60.6467 7.30712L62.2033 4.22548L67.4282 14.8223H64.3151Z" fill="#DDDDDD"/>
<path d="M66.031 2.14307L71.4411 8.81015L71.4243 15.7711H72.4339L72.476 8.81015L77.8524 2.14307H66.031V2.14307ZM71.9375 7.74375L68.0503 2.99115H75.8668L71.9375 7.74375Z" fill="#DDDDDD"/>
<path d="M83.515 6.3355L85.0211 7.69602C85.0463 7.72121 85.0884 7.72121 85.1221 7.69602C85.4586 7.42727 85.8288 7.20052 86.2159 7.00736C87.8902 6.19273 89.4804 6.37749 90.0694 6.45308C90.6247 6.52866 91.1716 6.66303 91.6933 6.85619C91.7269 6.87299 91.769 6.85619 91.7858 6.8226L92.9217 5.02538C92.9469 4.99179 92.9301 4.9414 92.8964 4.9162L92.888 4.9078C92.1055 4.57187 91.2894 4.34512 90.448 4.22755C89.7497 4.13517 87.4611 3.84963 85.1136 5.10096C84.5415 5.4033 84.003 5.78122 83.5234 6.21793C83.4813 6.25152 83.4813 6.30191 83.515 6.3355Z" fill="#DDDDDD"/>
<path d="M95.4035 3.21613L93.1739 3.55202C93.1318 3.56042 93.1065 3.59401 93.1065 3.636C93.1654 4.06426 93.1991 4.49252 93.1991 4.92918C93.1991 5.11392 93.1907 6.11321 92.9551 6.93615C92.5344 8.39728 91.3565 9.33778 90.7507 9.75765C90.717 9.78284 90.7086 9.82483 90.7255 9.85841C91.1041 10.463 91.5163 11.0424 91.9707 11.5967C91.9959 11.6303 92.038 11.6303 92.0717 11.6135C93.359 10.7233 94.3686 9.48893 94.9912 8.05299C95.8747 5.99565 95.6054 4.06426 95.4708 3.29171C95.4792 3.24132 95.4456 3.20773 95.4035 3.21613Z" fill="#DDDDDD"/>
<path d="M91.5921 14.4611L92.3914 12.2444C92.4083 12.2024 92.383 12.1605 92.3494 12.1521C91.6005 11.8666 90.919 11.4551 90.3132 10.9346C89.8505 10.5315 89.4466 10.0613 89.1269 9.54074C88.9418 9.23846 88.7398 8.9026 88.6725 8.48277C88.6641 8.4072 88.6136 8.25606 88.5632 7.9202C88.5379 7.77746 88.5295 7.60113 88.5211 7.50037C88.5211 7.45839 88.4874 7.4332 88.4454 7.4332L86.0895 7.4248C86.0474 7.4248 86.0138 7.45839 86.0138 7.50037C85.9969 7.76067 86.0138 8.02936 86.0558 8.28965C86.1147 8.62551 86.2073 8.95298 86.3503 9.26365C86.7289 10.1537 87.2338 10.9849 87.8312 11.7406C88.3696 12.362 88.9838 12.9245 89.6569 13.3948C90.2375 13.823 90.8517 14.1924 91.4912 14.5031C91.5248 14.5115 91.5753 14.4947 91.5921 14.4611C91.5837 14.4611 91.5837 14.4611 91.5921 14.4611Z" fill="#DDDDDD"/>
<path d="M86.477 10.5092L87.5035 12.5327C87.5203 12.5663 87.5119 12.6167 87.4698 12.6335C87.4614 12.6419 87.4446 12.6419 87.4362 12.6419C86.578 12.6167 85.7366 12.4487 84.9373 12.1465C83.7257 11.6847 82.6403 10.929 81.7905 9.94661C81.1679 9.15734 80.7472 8.21694 80.5789 7.22616C80.3518 6.34453 80.3265 5.42932 80.4948 4.53929C80.5453 4.27061 80.6294 4.00192 80.722 3.74163C80.7556 3.65767 80.7893 3.5737 80.8229 3.49814C80.8482 3.44776 80.8987 3.43096 80.9492 3.45615C80.9828 3.47295 81.008 3.50653 80.9996 3.54851C80.9576 4.22023 80.9828 4.90034 81.0922 5.56366C81.1595 6.00028 81.2689 6.43689 81.4035 6.85671V6.86511C81.7905 7.71315 82.3963 8.44364 83.1451 8.99781C83.6247 9.37565 84.1464 9.69471 84.7017 9.94661C85.2486 10.1901 85.8207 10.3664 86.4097 10.4756C86.4433 10.4672 86.4686 10.484 86.477 10.5092Z" fill="#DDDDDD"/>
<path d="M89.1858 3.6204H86.6197C86.5776 3.6204 86.5439 3.58681 86.5439 3.54483C86.5439 3.53643 86.544 3.52804 86.5524 3.51964C86.6197 3.34331 86.7038 3.17538 86.7964 3.01585C87.1834 2.36932 87.6714 1.99148 88.1762 1.61363C88.8914 1.08465 89.6907 0.664826 90.5404 0.370948C91.4155 0.05188 92.3578 -0.0656712 93.2917 0.035087C93.8134 0.0602766 94.335 0.144242 94.8398 0.286982C95.21 0.387741 95.5718 0.522085 95.9252 0.690015C96.2702 0.857946 96.6067 1.05107 96.9264 1.26938C97.1536 1.41212 97.3639 1.58005 97.5659 1.75637C97.7341 1.90751 97.8856 2.07544 98.0286 2.25177C98.0623 2.29375 98.0539 2.36092 98.0118 2.39451C97.9781 2.4197 97.9276 2.42809 97.8856 2.39451C97.6248 2.21818 97.3471 2.05865 97.0695 1.90751C96.6488 1.67241 96.2028 1.48768 95.7401 1.35334C95.2858 1.23579 94.8146 1.17701 94.3434 1.18541C93.7965 1.18541 93.2581 1.25258 92.728 1.40372C92.3914 1.49608 92.0717 1.62203 91.7604 1.77317C91.3229 1.98308 90.9022 2.22658 90.5068 2.50366C90.246 2.68839 90.044 2.84792 89.9262 2.94868C89.6823 3.15019 89.4467 3.3685 89.2279 3.59521C89.2111 3.612 89.2027 3.6204 89.1858 3.6204Z" fill="#DDDDDD"/>
<path d="M94.6293 9.7616L96.1101 7.83881C96.1353 7.80523 96.1858 7.79683 96.211 7.82202H96.2195C96.4214 8.02353 96.5981 8.25024 96.7327 8.50213C96.9767 8.96393 97.0188 9.38376 97.0777 9.91273C97.1197 10.2822 97.1281 10.6516 97.1113 11.0295C97.1281 11.7348 97.0104 12.4317 96.7748 13.1034C96.5392 13.8339 96.211 14.5224 95.7988 15.1605C95.3108 15.8742 94.6882 16.4871 93.9562 16.9657C93.3756 17.3772 92.7194 17.671 92.0294 17.8138C91.7854 17.8726 91.5414 17.9229 91.2974 17.9481L90.9525 17.9985C90.9104 18.0069 90.8767 17.9733 90.8683 17.9313C90.8599 17.8977 90.8852 17.8558 90.9188 17.8474C91.1712 17.755 91.4405 17.6375 91.7265 17.5031C92.0294 17.3604 92.3071 17.2092 92.5595 17.0581L92.5679 17.0497C93.14 16.6467 93.6365 16.1429 94.0403 15.5719V15.5635C94.4778 15.0514 94.7555 14.4384 94.8564 13.7751V13.7667C94.9406 13.4392 94.9995 13.1034 95.0247 12.7675C95.0584 12.3729 95.092 12.037 95.0584 11.7516C95.0584 11.5165 95.0331 11.273 94.9995 11.0379C94.9826 10.8867 94.949 10.7272 94.9153 10.5761C94.8733 10.4417 94.8312 10.3074 94.7807 10.1646C94.7386 10.0303 94.6798 9.89594 94.6293 9.7616Z" fill="#DDDDDD"/>
<path d="M90.5488 7.20541C90.0945 7.1378 89.657 7.40825 89.5729 7.82144C89.4971 8.22711 89.8 8.61776 90.2628 8.69289C90.7171 8.7605 91.1546 8.49005 91.2387 8.07686C91.2555 7.99423 91.2555 7.90408 91.2387 7.82144C91.1714 7.50591 90.9022 7.26551 90.5488 7.20541Z" fill="#DDDDDD"/>
</svg>
