<svg xmlns="http://www.w3.org/2000/svg" viewBox="0 0 130.39 228.28"><defs><style>.cls-1{fill:#1d1d1b;}</style></defs><title>Ivan (Black)</title><g id="Capa_2" data-name="Capa 2"><g id="Capa_1-2" data-name="Capa 1"><path class="cls-1" d="M90.06,114.14,130.22,3.79A2.82,2.82,0,0,0,127.56,0H121.5a2.81,2.81,0,0,0-2.65,1.86L84,97.55,70.87,61.39v-50h5.66A2.84,2.84,0,0,0,79.37,8.5V2.84A2.84,2.84,0,0,0,76.53,0H53.83A2.81,2.81,0,0,0,51,2.8V8.53a2.81,2.81,0,0,0,2.81,2.81h5.7V61.4L46.37,97.56,11.52,1.86A2.82,2.82,0,0,0,8.86,0h-6A2.83,2.83,0,0,0,.17,3.8L40.33,114.14.17,224.48a2.83,2.83,0,0,0,2.66,3.79h6a2.82,2.82,0,0,0,2.66-1.86l19.93-54.73H43.11a2.8,2.8,0,0,0,2.81-2.8v-5.73a2.81,2.81,0,0,0-2.81-2.81H35.58l10.79-29.63,10.78,29.63H54.39a2.8,2.8,0,0,0-2.8,2.81v5.73a2.8,2.8,0,0,0,2.8,2.8h22.7a2.84,2.84,0,0,0,2.84-2.84v-5.66a2.84,2.84,0,0,0-2.84-2.84H73.25L84,130.73,94.8,160.35H88.41a2.81,2.81,0,0,0-2.81,2.81v5.73a2.81,2.81,0,0,0,2.81,2.8H98.93l19.92,54.73a2.81,2.81,0,0,0,2.65,1.86h6.06a2.82,2.82,0,0,0,2.66-3.79ZM59.53,94.57v39.14L52.4,114.14Zm11.34,39.14V94.57L78,114.14Z"/><path class="cls-1" d="M85.36,177.26H80.2a3.09,3.09,0,0,0-3.09,3.09v26.83a.28.28,0,0,1-.5.17L53.77,178.43c-.06-.08-.14-.14-.21-.22l-.08-.08q-.18-.16-.36-.3l-.12-.08a2.75,2.75,0,0,0-.38-.2l-.17-.08-.37-.11-.23-.05-.35,0H46.17a3.09,3.09,0,0,0-3.09,3.09v44.84a3.09,3.09,0,0,0,3.09,3.09h5.16a3.09,3.09,0,0,0,3.09-3.09V198.35a.28.28,0,0,1,.5-.17L77.76,227.1c.06.08.13.13.19.2l.12.12a2.69,2.69,0,0,0,.32.27l.16.11.33.18.22.09.32.1.28.06a1.53,1.53,0,0,0,.3,0l.2,0h5.16a3.09,3.09,0,0,0,3.09-3.09V180.35A3.09,3.09,0,0,0,85.36,177.26Z"/></g></g></svg>