<svg xmlns="http://www.w3.org/2000/svg" viewBox="0 0 130.39 292.08"><defs><style>.cls-1{fill:#fff;}.cls-2{fill:none;stroke:#fff;stroke-miterlimit:10;stroke-width:2px;}</style></defs><title>Ivan Photos - Logo (White)</title><g id="Capa_2" data-name="Capa 2"><g id="Capa_1-2" data-name="Capa 1"><path class="cls-1" d="M90.06,177.94,130.22,67.6a2.83,2.83,0,0,0-2.66-3.8H121.5a2.82,2.82,0,0,0-2.65,1.86L84,161.35,70.87,125.19v-50h5.66a2.84,2.84,0,0,0,2.84-2.84V66.64a2.84,2.84,0,0,0-2.84-2.84H53.83A2.81,2.81,0,0,0,51,66.61v5.73a2.8,2.8,0,0,0,2.81,2.8h5.7v50.07L46.37,161.37,11.52,65.66A2.83,2.83,0,0,0,8.86,63.8h-6a2.83,2.83,0,0,0-2.66,3.8L40.33,177.94.17,288.28a2.83,2.83,0,0,0,2.66,3.79h6a2.82,2.82,0,0,0,2.66-1.86l19.93-54.73H43.11a2.8,2.8,0,0,0,2.81-2.8V227a2.81,2.81,0,0,0-2.81-2.81H35.58l10.79-29.63,10.78,29.63H54.39a2.8,2.8,0,0,0-2.8,2.81v5.73a2.8,2.8,0,0,0,2.8,2.8h22.7a2.84,2.84,0,0,0,2.84-2.84V227a2.85,2.85,0,0,0-2.84-2.85H73.25L84,194.53,94.8,224.15H88.41A2.81,2.81,0,0,0,85.6,227v5.73a2.8,2.8,0,0,0,2.81,2.8H98.93l19.92,54.73a2.81,2.81,0,0,0,2.65,1.86h6.06a2.82,2.82,0,0,0,2.66-3.79ZM59.53,158.37v39.15L52.4,177.94Zm11.34,39.14V158.37L78,177.94Z"/><path class="cls-1" d="M85.36,241.06H80.2a3.09,3.09,0,0,0-3.09,3.09V271a.28.28,0,0,1-.5.18L53.77,242.23a2.08,2.08,0,0,0-.21-.21l-.08-.09a3.05,3.05,0,0,0-.36-.29l-.12-.09-.38-.2-.17-.08-.37-.11-.23,0-.35,0-.17,0H46.17a3.09,3.09,0,0,0-3.09,3.09V289a3.09,3.09,0,0,0,3.09,3.09h5.16A3.09,3.09,0,0,0,54.42,289V262.16a.28.28,0,0,1,.5-.18l22.84,28.93.19.19.12.12a2.69,2.69,0,0,0,.32.27l.16.11a2.68,2.68,0,0,0,.33.18l.22.09.32.1a1.4,1.4,0,0,0,.28.06,1.53,1.53,0,0,0,.3,0l.2,0h5.16A3.09,3.09,0,0,0,88.45,289V244.15A3.09,3.09,0,0,0,85.36,241.06Z"/><path class="cls-1" d="M34.22,58.13H96.78A4.15,4.15,0,0,0,100.93,54V15.23a4.16,4.16,0,0,0-4.15-4.16H81.58L77.2,2.3A4.14,4.14,0,0,0,73.48,0h-16a4.13,4.13,0,0,0-3.71,2.3l-4.39,8.77H34.22a4.16,4.16,0,0,0-4.15,4.16V54A4.15,4.15,0,0,0,34.22,58.13ZM65.5,19.38A15.23,15.23,0,1,1,50.27,34.6,15.23,15.23,0,0,1,65.5,19.38ZM61.88,17a17.51,17.51,0,0,1,3.62-.37h0A17.51,17.51,0,0,0,61.88,17ZM35,17.92a2.12,2.12,0,0,1,2.12-2.12h5.79A2.12,2.12,0,0,1,45,17.92v.13a2.12,2.12,0,0,1-2.11,2.12H37.12A2.12,2.12,0,0,1,35,18.05Zm36-11A1.38,1.38,0,0,1,69.65,8.3h-8.3a1.38,1.38,0,1,1,0-2.76h8.3A1.38,1.38,0,0,1,71,6.92Z"/><circle class="cls-2" cx="65.5" cy="34.6" r="12.46"/><rect class="cls-1" x="87.18" y="4.74" width="10.02" height="4.36" rx="1.29"/></g></g></svg>