<svg xmlns="http://www.w3.org/2000/svg" viewBox="0 0 1077.71 292.08"><defs><style>.cls-1,.cls-2{fill:#1d1d1b;}.cls-1,.cls-3{stroke:#1d1d1b;stroke-miterlimit:10;}.cls-3{fill:none;stroke-width:2px;}</style></defs><title>Logo + Texto (Black)_1</title><g id="Capa_2" data-name="Capa 2"><g id="Capa_1-2" data-name="Capa 1"><path class="cls-1" d="M206.7,114h16.8V238.37H206.7Z"/><path class="cls-1" d="M240.88,157.8h17.81l23,46.58,22.4-46.58H322l-40.58,83.59Z"/><path class="cls-1" d="M400.65,157.8h17v80.57h-17v-16q-12.4,18.26-30.76,18.26-15.93,0-27.2-12.5t-11.28-30.37a42.76,42.76,0,0,1,11.38-29.54q11.37-12.64,26.71-12.65a34,34,0,0,1,18,5.18,36.89,36.89,0,0,1,13.18,13.47ZM403,198.33a25.67,25.67,0,0,0-7.92-18.9,26.68,26.68,0,0,0-37.77-.05,24.85,24.85,0,0,0-8,18.36,26.74,26.74,0,0,0,7.83,19.43,25.55,25.55,0,0,0,19,8A27.11,27.11,0,0,0,403,198.33Z"/><path class="cls-1" d="M440,238.37V157.8h16.6v13.38q7.32-8.12,13.28-11.87a24.43,24.43,0,0,1,13.28-3.76,26.47,26.47,0,0,1,18.7,7.23,22.89,22.89,0,0,1,7.76,17.38v58.21h-17V185.14a14.77,14.77,0,0,0-4.25-10.84A14.54,14.54,0,0,0,477.6,170q-8.49,0-14.65,7.17a25.77,25.77,0,0,0-6.15,17.34v43.85Z"/><path class="cls-1" d="M591.57,114h25q21.18,0,34.18,10t13,25.88q0,16-13.73,26.86t-41.65,10.54v51.18H591.57Zm16.79,14.84v43.56q19.14-.19,28.37-5.42T646,150.18q0-8.69-7-15T608.36,128.79Z"/><path class="cls-1" d="M682.19,111.61h17V171q7-8.1,13.14-11.77t14.89-3.66a23.65,23.65,0,0,1,17.73,7.86,26.36,26.36,0,0,1,7.47,18.8v56.16h-17V187q0-7.62-3.86-12.21a12.68,12.68,0,0,0-10.21-4.59,20.7,20.7,0,0,0-15.67,6.93,23.71,23.71,0,0,0-6.5,16.8v44.44h-17Z"/><path class="cls-1" d="M769,197.74q0-16.5,13-29.35T812,155.55q17.38,0,30.37,12.65t13,29.54q0,17-12.75,29.93t-29.44,12.94a43,43,0,0,1-31-12.79Q769,215,769,197.74Zm69.92,0a24.09,24.09,0,0,0-7.81-17.86,25.77,25.77,0,0,0-18.56-7.58,26.41,26.41,0,0,0-19,7.68,24.6,24.6,0,0,0-8,18.34q0,10.19,8.06,17.81a26.58,26.58,0,0,0,18.89,7.63A25.41,25.41,0,0,0,831,216Q838.93,208.16,838.93,197.79Z"/><path class="cls-1" d="M879,134.36h17V157.8h16.8v15.53H896v65H879v-65H865.59V157.6H879Z"/><path class="cls-1" d="M923.21,197.74q0-16.5,13-29.35t29.93-12.84q17.37,0,30.37,12.65t13,29.54q0,17-12.75,29.93t-29.44,12.94q-17.88,0-31-12.79T923.21,197.74Zm69.92,0a24.09,24.09,0,0,0-7.81-17.86,25.77,25.77,0,0,0-18.56-7.58,26.39,26.39,0,0,0-19,7.68,24.6,24.6,0,0,0-8,18.34q0,10.19,8.06,17.81a26.58,26.58,0,0,0,18.89,7.63A25.41,25.41,0,0,0,985.22,216Q993.13,208.16,993.13,197.79Z"/><path class="cls-1" d="M1076.33,167.37l-11.32,10a60.89,60.89,0,0,0-7.62-4.74,16.92,16.92,0,0,0-7.62-1.61q-10.35,0-10.35,7.62,0,5.47,13.13,10.62t18.9,11.3a20.89,20.89,0,0,1,5.76,14.82q0,10.16-8.3,17.71a28,28,0,0,1-19.53,7.56q-17.09,0-28-15.82l13.38-6.44q7,6.83,14.65,6.83a15.26,15.26,0,0,0,9.23-2.88c2.64-1.92,4-4.15,4-6.69q0-6.74-13.86-12.12t-19.19-10.9a18.82,18.82,0,0,1-5.33-13.61,21.42,21.42,0,0,1,7.57-16.74q7.57-6.69,19-6.69T1076.33,167.37Z"/><path class="cls-2" d="M90.06,177.94,130.22,67.6a2.83,2.83,0,0,0-2.66-3.8H121.5a2.82,2.82,0,0,0-2.65,1.86L84,161.35,70.87,125.19v-50h5.66a2.84,2.84,0,0,0,2.84-2.84V66.64a2.84,2.84,0,0,0-2.84-2.84H53.83A2.81,2.81,0,0,0,51,66.61v5.73a2.8,2.8,0,0,0,2.81,2.8h5.7v50.07L46.37,161.37,11.52,65.66A2.83,2.83,0,0,0,8.86,63.8h-6a2.83,2.83,0,0,0-2.66,3.8L40.33,177.94.17,288.28a2.83,2.83,0,0,0,2.66,3.79h6a2.82,2.82,0,0,0,2.66-1.86l19.93-54.73H43.11a2.8,2.8,0,0,0,2.81-2.8V227a2.81,2.81,0,0,0-2.81-2.81H35.58l10.79-29.63,10.78,29.63H54.39a2.8,2.8,0,0,0-2.8,2.81v5.73a2.8,2.8,0,0,0,2.8,2.8h22.7a2.84,2.84,0,0,0,2.84-2.84V227a2.85,2.85,0,0,0-2.84-2.85H73.25L84,194.53,94.8,224.15H88.41A2.81,2.81,0,0,0,85.6,227v5.73a2.8,2.8,0,0,0,2.81,2.8H98.93l19.92,54.73a2.81,2.81,0,0,0,2.65,1.86h6.06a2.82,2.82,0,0,0,2.66-3.79ZM59.53,158.37v39.15L52.4,177.94Zm11.34,39.14V158.37L78,177.94Z"/><path class="cls-2" d="M85.36,241.06H80.2a3.09,3.09,0,0,0-3.09,3.09V271a.28.28,0,0,1-.5.18L53.77,242.23a2.08,2.08,0,0,0-.21-.21l-.08-.09a3.05,3.05,0,0,0-.36-.29l-.12-.09-.38-.2-.17-.08-.37-.11-.23,0-.35,0-.17,0H46.17a3.09,3.09,0,0,0-3.09,3.09V289a3.09,3.09,0,0,0,3.09,3.09h5.16A3.09,3.09,0,0,0,54.42,289V262.16a.28.28,0,0,1,.5-.18l22.84,28.93.19.19.12.12a2.69,2.69,0,0,0,.32.27l.16.11a2.68,2.68,0,0,0,.33.18l.22.09.32.1a1.4,1.4,0,0,0,.28.06,1.53,1.53,0,0,0,.3,0l.2,0h5.16A3.09,3.09,0,0,0,88.45,289V244.15A3.09,3.09,0,0,0,85.36,241.06Z"/><path class="cls-2" d="M34.22,58.13H96.78A4.15,4.15,0,0,0,100.93,54V15.23a4.16,4.16,0,0,0-4.15-4.16H81.58L77.2,2.3A4.14,4.14,0,0,0,73.48,0h-16a4.13,4.13,0,0,0-3.71,2.3l-4.39,8.77H34.22a4.16,4.16,0,0,0-4.15,4.16V54A4.15,4.15,0,0,0,34.22,58.13ZM65.5,19.38A15.23,15.23,0,1,1,50.27,34.6,15.23,15.23,0,0,1,65.5,19.38ZM61.88,17a17.51,17.51,0,0,1,3.62-.37h0A17.51,17.51,0,0,0,61.88,17ZM35,17.92a2.12,2.12,0,0,1,2.12-2.12h5.79A2.12,2.12,0,0,1,45,17.92v.13a2.12,2.12,0,0,1-2.11,2.12H37.12A2.12,2.12,0,0,1,35,18.05Zm36-11A1.38,1.38,0,0,1,69.65,8.3h-8.3a1.38,1.38,0,1,1,0-2.76h8.3A1.38,1.38,0,0,1,71,6.92Z"/><circle class="cls-3" cx="65.5" cy="34.6" r="12.46"/><rect class="cls-2" x="87.18" y="4.74" width="10.02" height="4.36" rx="1.29"/></g></g></svg>